<svg xmlns="http://www.w3.org/2000/svg" width="390" height="844" viewBox="0 0 390 844">
  <defs>
    <filter id="tipShadow" x="-30%" y="-30%" width="160%" height="170%">
      <feDropShadow dx="0" dy="5" stdDeviation="8" flood-color="#46502C" flood-opacity="0.18"/>
    </filter>
    <clipPath id="photo"><rect x="0" y="298" width="70" height="76" rx="15"/></clipPath>
    <style>
      .ui { font-family: "Noto Sans SC", "PingFang SC", "Microsoft YaHei", sans-serif; }
      .primary { fill: #46502C; }
      .secondary { fill: #6E735D; }
    </style>
  </defs>

  <image href="01-product-list.svg" x="0" y="0" width="390" height="844"/>

  <rect x="0" y="278" width="390" height="116" fill="#F8F0DD"/>

  <g id="archive-action" x="296" class="ui">
    <rect x="296" y="286" width="74" height="100" rx="20" fill="#46502C"/>
    <path d="M321 317h23M324 317l2 29h14l2-29M328 312h10M331 324v15M337 324v15" fill="none" stroke="#FFFDF7" stroke-width="1.7" stroke-linecap="round" stroke-linejoin="round"/>
    <text x="333" y="366" text-anchor="middle" font-size="11.5" font-weight="700" fill="#FFFDF7">归档</text>
  </g>

  <g class="ui">
    <rect id="swiped-card" x="-54" y="286" width="350" height="100" rx="20" fill="#FFFDF7" stroke="#C9D5A4" stroke-width="1.4"/>
    <image href="../../pic/班赛.png" x="-40" y="288" width="76" height="96" preserveAspectRatio="xMidYMid meet" clip-path="url(#photo)"/>
    <text x="50" y="314" font-size="15" font-weight="700" class="primary">班赛 过氧苯甲酰凝胶</text>
    <text x="50" y="337" font-size="11.5" class="secondary">Galderma · 5% · 60g</text>
    <rect x="220" y="300" width="59" height="23" rx="11.5" fill="#F5E8BF"/>
    <text x="249.5" y="316" text-anchor="middle" font-size="10.5" font-weight="700" fill="#71813C">8 次</text>
    <circle cx="55" cy="362" r="3.5" fill="#E8C76A"/>
    <text x="65" y="366" font-size="11" class="secondary">最后使用：3 天前</text>
  </g>

  <g class="ui" filter="url(#tipShadow)">
    <rect x="105" y="675" width="180" height="42" rx="21" fill="#46502C"/>
    <path d="M151 696h-20M131 696l6-6M131 696l6 6" fill="none" stroke="#FFFDF7" stroke-width="1.6" stroke-linecap="round" stroke-linejoin="round"/>
    <text x="164" y="701" font-size="12" font-weight="600" fill="#FFFDF7">左滑显示归档操作</text>
  </g>
</svg>
