<svg xmlns="http://www.w3.org/2000/svg" width="390" height="844" viewBox="0 0 390 844">
  <defs>
    <filter id="float" x="-30%" y="-30%" width="160%" height="170%">
      <feDropShadow dx="0" dy="5" stdDeviation="8" flood-color="#46502C" flood-opacity="0.18"/>
    </filter>
    <clipPath id="p1"><rect x="34" y="186" width="76" height="76" rx="15"/></clipPath>
    <clipPath id="p2"><rect x="34" y="298" width="76" height="76" rx="15"/></clipPath>
    <clipPath id="p3"><rect x="34" y="410" width="76" height="76" rx="15"/></clipPath>
    <clipPath id="p4"><rect x="34" y="522" width="76" height="76" rx="15"/></clipPath>
    <style>
      .ui { font-family: "Noto Sans SC", "PingFang SC", "Microsoft YaHei", sans-serif; }
      .primary { fill: #46502C; }
      .secondary { fill: #6E735D; }
      .action { fill: #71813C; }
    </style>
  </defs>

  <rect width="390" height="844" fill="#F8F0DD"/>
  <path d="M0 0H390V142C312 134 276 150 218 146C151 141 92 126 0 149V0Z" fill="#FFFDF7"/>

  <g class="ui primary" font-size="12" font-weight="700">
    <text x="22" y="28">20:19</text>
    <path d="M323 24c4.8-4.6 12.2-4.6 17 0M327 28c2.8-2.7 7.2-2.7 10 0" fill="none" stroke="#46502C" stroke-width="1.7" stroke-linecap="round"/>
    <circle cx="332" cy="31" r="1.3"/>
    <rect x="349" y="20" width="20" height="10" rx="3" fill="none" stroke="#46502C" stroke-width="1.5"/>
    <rect x="351.5" y="22.5" width="14" height="5" rx="1.5"/>
  </g>

  <g class="ui">
    <text x="20" y="61" font-size="10" font-weight="700" letter-spacing="2.1" class="secondary">MY VANITY</text>
    <text x="20" y="96" font-size="29" font-weight="700" class="primary">我的产品</text>
    <text x="20" y="121" font-size="13" class="secondary">4 件产品 · 已记录 26 次使用</text>
    <g filter="url(#float)">
      <rect x="297" y="62" width="73" height="38" rx="19" fill="#71813C"/>
      <path d="M316 76v10M311 81h10" stroke="#FFFDF7" stroke-width="1.8" stroke-linecap="round"/>
      <text x="329" y="86" font-size="13" font-weight="700" fill="#FFFDF7">新增</text>
    </g>
    <text x="20" y="160" font-size="11.5" font-weight="600" class="secondary">按使用频次排列</text>
    <text x="370" y="160" text-anchor="end" font-size="11" class="secondary">共 4 件</text>
  </g>

  <g class="ui">
    <rect x="20" y="174" width="350" height="100" rx="20" fill="#FFFDF7" stroke="#DED8C6"/>
    <rect x="34" y="186" width="76" height="76" rx="15" fill="#FFFDF7"/>
    <image href="../../pic/阿达帕林.jpg" x="34" y="176" width="76" height="96" preserveAspectRatio="xMidYMid meet" clip-path="url(#p1)"/>
    <text x="124" y="202" font-size="15.5" font-weight="700" class="primary">阿达帕林凝胶</text>
    <text x="124" y="225" font-size="11.5" class="secondary">达芙文 · 0.1% · 30g</text>
    <rect x="294" y="188" width="59" height="23" rx="11.5" fill="#EDF1DF"/>
    <text x="323.5" y="204" text-anchor="middle" font-size="10.5" font-weight="700" class="action">11 次</text>
    <circle cx="129" cy="250" r="3.5" fill="#9BAD50"/>
    <text x="139" y="254" font-size="11" class="secondary">最后使用：昨天</text>
    <path d="M350 235l4 4-4 4" fill="none" stroke="#8D927A" stroke-width="1.5" stroke-linecap="round" stroke-linejoin="round"/>
  </g>

  <g class="ui">
    <rect x="20" y="286" width="350" height="100" rx="20" fill="#FFFDF7" stroke="#DED8C6"/>
    <rect x="34" y="298" width="76" height="76" rx="15" fill="#FFFDF7"/>
    <image href="../../pic/班赛.png" x="34" y="288" width="76" height="96" preserveAspectRatio="xMidYMid meet" clip-path="url(#p2)"/>
    <text x="124" y="314" font-size="15" font-weight="700" class="primary">班赛 过氧苯甲酰凝胶</text>
    <text x="124" y="337" font-size="11.5" class="secondary">Galderma · 5% · 60g</text>
    <rect x="294" y="300" width="59" height="23" rx="11.5" fill="#F5E8BF"/>
    <text x="323.5" y="316" text-anchor="middle" font-size="10.5" font-weight="700" class="action">8 次</text>
    <circle cx="129" cy="362" r="3.5" fill="#E8C76A"/>
    <text x="139" y="366" font-size="11" class="secondary">最后使用：3 天前</text>
    <path d="M350 347l4 4-4 4" fill="none" stroke="#8D927A" stroke-width="1.5" stroke-linecap="round" stroke-linejoin="round"/>
  </g>

  <g class="ui">
    <rect x="20" y="398" width="350" height="100" rx="20" fill="#FFFDF7" stroke="#DED8C6"/>
    <rect x="34" y="410" width="76" height="76" rx="15" fill="#FFFDF7"/>
    <image href="../../pic/壬二酸.jpg" x="34" y="400" width="76" height="96" preserveAspectRatio="xMidYMid meet" clip-path="url(#p3)"/>
    <text x="124" y="426" font-size="15.5" font-weight="700" class="primary">Skinoren 壬二酸乳膏</text>
    <text x="124" y="449" font-size="11.5" class="secondary">LEO · 20% · 30g</text>
    <rect x="294" y="412" width="59" height="23" rx="11.5" fill="#EDF1DF"/>
    <text x="323.5" y="428" text-anchor="middle" font-size="10.5" font-weight="700" class="action">5 次</text>
    <circle cx="129" cy="474" r="3.5" fill="#9BAD50"/>
    <text x="139" y="478" font-size="11" class="secondary">最后使用：8 月 21 日</text>
    <path d="M350 459l4 4-4 4" fill="none" stroke="#8D927A" stroke-width="1.5" stroke-linecap="round" stroke-linejoin="round"/>
  </g>

  <g class="ui">
    <rect x="20" y="510" width="350" height="100" rx="20" fill="#FFFDF7" stroke="#DED8C6"/>
    <rect x="34" y="522" width="76" height="76" rx="15" fill="#FFFDF7"/>
    <image href="../../pic/鱼石脂软膏.jpg" x="34" y="512" width="76" height="96" preserveAspectRatio="xMidYMid meet" clip-path="url(#p4)"/>
    <text x="124" y="538" font-size="15.5" font-weight="700" class="primary">鱼石脂软膏</text>
    <text x="124" y="561" font-size="11.5" class="secondary">恒健 · 10% · 20g</text>
    <rect x="294" y="524" width="59" height="23" rx="11.5" fill="#E7ECD5"/>
    <text x="323.5" y="540" text-anchor="middle" font-size="10.5" font-weight="700" fill="#46502C">2 次</text>
    <circle cx="129" cy="586" r="3.5" fill="#9DA38B"/>
    <text x="139" y="590" font-size="11" class="secondary">最后使用：8 月 12 日</text>
    <path d="M350 571l4 4-4 4" fill="none" stroke="#8D927A" stroke-width="1.5" stroke-linecap="round" stroke-linejoin="round"/>
  </g>

  <g class="ui">
    <text x="195" y="647" text-anchor="middle" font-size="11" class="secondary">继续下滑查看全部产品</text>
    <path d="M190 658l5 5 5-5" fill="none" stroke="#8D927A" stroke-width="1.4" stroke-linecap="round" stroke-linejoin="round"/>
  </g>

  <g class="ui">
    <path d="M0 754Q0 738 16 738H374Q390 738 390 754V844H0Z" fill="#FFFDF7" stroke="#DED8C6"/>
    <g transform="translate(48 767)" fill="none" stroke="#7A8069" stroke-width="1.6" stroke-linecap="round">
      <circle cx="0" cy="4" r="8"/><path d="M-3 4h6M0 1v6"/>
      <text x="0" y="32" text-anchor="middle" font-size="10.5" fill="#7A8069" stroke="none">观察</text>
    </g>
    <g transform="translate(145 767)" fill="none" stroke="#7A8069" stroke-width="1.6" stroke-linecap="round">
      <path d="M-8 0h16v15h-16zM-4-4v7M4-4v7M-8 5h16"/>
      <text x="0" y="32" text-anchor="middle" font-size="10.5" fill="#7A8069" stroke="none">记录</text>
    </g>
    <g transform="translate(243 767)">
      <rect x="-20" y="-11" width="40" height="34" rx="17" fill="#EDF1DF"/>
      <path d="M-7 0h14v15h-14zM-4-4h8v4" fill="none" stroke="#9BAD50" stroke-width="1.7" stroke-linejoin="round"/>
      <text x="0" y="34" text-anchor="middle" font-size="10.5" font-weight="700" fill="#71813C">产品</text>
    </g>
    <g transform="translate(341 767)" fill="none" stroke="#7A8069" stroke-width="1.6">
      <circle cx="0" cy="1" r="5"/><path d="M-9 15c1-6 5-9 9-9s8 3 9 9"/>
      <text x="0" y="32" text-anchor="middle" font-size="10.5" fill="#7A8069" stroke="none">我的</text>
    </g>
    <rect x="135" y="832" width="120" height="5" rx="2.5" fill="#46502C"/>
  </g>
</svg>
